<svg width="95" height="95" viewBox="0 0 95 95" fill="none" xmlns="http://www.w3.org/2000/svg">
<g clip-path="url(#clip0)">
<path d="M86.5323 11.5089C81.0568 5.99612 73.7754 2.96021 66.0292 2.96021C59.1805 2.96021 52.6952 5.33335 47.5001 9.69352C42.3048 5.33316 35.8195 2.96021 28.9708 2.96021C21.2248 2.96021 13.9436 5.99612 8.46771 11.5091C-2.82282 22.8768 -2.82282 41.3736 8.46771 52.7415L47.5001 92.04L86.5323 52.7411C97.8226 41.3734 97.8226 22.8768 86.5323 11.5089ZM82.5844 48.8202L47.5001 84.1438L12.416 48.8202C3.27296 39.6144 3.27296 24.6354 12.416 15.4299C16.8388 10.9766 22.7186 8.5242 28.971 8.5242C35.2234 8.5242 41.1032 10.9768 45.5262 15.4299L47.5001 17.4173L49.4741 15.4299C53.8972 10.9766 59.7768 8.5242 66.0294 8.5242C72.2819 8.5242 78.1615 10.9768 82.5846 15.4299C91.7276 24.6356 91.7276 39.6146 82.5844 48.8202Z" fill="#062E70"/>
<path d="M47.5001 20.9507C35.2279 20.9507 25.2434 30.935 25.2434 43.2074C25.2434 55.4798 35.2279 65.4641 47.5001 65.4641C59.7724 65.4641 69.7568 55.4798 69.7568 43.2074C69.7568 30.935 59.7726 20.9507 47.5001 20.9507ZM47.5001 59.8999C38.2959 59.8999 30.8076 52.4116 30.8076 43.2074C30.8076 34.0032 38.2959 26.5149 47.5001 26.5149C56.7044 26.5149 64.1927 34.0032 64.1927 43.2074C64.1927 52.4116 56.7045 59.8999 47.5001 59.8999Z" fill="#062E70"/>
<path d="M50.2821 40.4258V32.636H44.7181V40.4258H37.1136V45.99H44.7181V53.4089H50.2821V45.99H57.8865V40.4258H50.2821Z" fill="#062E70"/>
</g>
<defs>
<clipPath id="clip0">
<rect width="95" height="95" fill="white"/>
</clipPath>
</defs>
</svg>
