<svg width="81" height="100" viewBox="0 0 81 100" fill="none" xmlns="http://www.w3.org/2000/svg">
<path d="M28.5774 49.3679L36.9248 55.3723C37.4695 55.7674 38.1897 55.7674 38.7344 55.3723L47.0564 49.3696C49.9474 47.2944 52.0827 42.956 52.0827 39.2772V27.1286C52.1001 26.4865 51.7633 25.891 51.2194 25.5991L38.5098 19.0216C38.064 18.7887 37.5406 18.7887 37.0948 19.0216L24.4089 25.5808C23.865 25.8727 23.529 26.4682 23.5472 27.1103V39.2772C23.5472 42.956 25.6872 47.2944 28.5774 49.3679ZM26.7853 28.1733L37.815 22.4476L48.8446 28.1891V39.2772C48.8446 41.8431 47.2461 45.1069 45.2295 46.5533L37.796 51.9023L30.3917 46.5541C28.3751 45.1061 26.7853 41.8431 26.7853 39.2772V28.1733Z" fill="#062E70"/>
<path d="M34.8905 42.2737C35.2127 42.5959 35.6531 42.7785 36.1137 42.781H36.1179C36.5768 42.7793 37.0163 42.5992 37.3394 42.2803L44.2121 35.5461C44.8878 34.8851 44.8878 33.8125 44.213 33.1515C43.5389 32.4897 42.444 32.4897 41.7691 33.1507L36.1238 38.6793L33.8672 36.4476C33.1949 35.7832 32.1008 35.7783 31.4225 36.4368C30.7443 37.0954 30.74 38.167 31.4115 38.8314L34.8905 42.2737Z" fill="#062E70"/>
<path d="M58.7041 60.2712H18.7667C17.8478 60.2712 17.1027 61.0956 17.1027 62.1123C17.1027 63.1291 17.8478 63.9534 18.7667 63.9534H58.7041C59.6231 63.9534 60.3682 63.1291 60.3682 62.1123C60.3682 61.0956 59.6231 60.2712 58.7041 60.2712Z" fill="#062E70"/>
<path d="M58.7041 68.5562H18.7667C17.8478 68.5562 17.1027 69.3805 17.1027 70.3972C17.1027 71.414 17.8478 72.2383 18.7667 72.2383H58.7041C59.6231 72.2383 60.3682 71.414 60.3682 70.3972C60.3682 69.3805 59.6231 68.5562 58.7041 68.5562Z" fill="#062E70"/>
<path d="M70.9302 8.13965H8.13953V91.2792H70.9302V8.13965Z" stroke="#062E70" stroke-width="5"/>
</svg>
