<svg width="390" height="236" viewBox="0 0 390 236" fill="none" xmlns="http://www.w3.org/2000/svg">
<circle cx="198" cy="237" r="150" fill="#466BEB" fill-opacity="0.25"/>
<circle cx="198" cy="222" r="180" fill="#466BEB" fill-opacity="0.25"/>
<circle cx="195" cy="195" r="195" fill="#466BEB" fill-opacity="0.25"/>
<path d="M272.055 184.018L232.957 172.519H165.044L125.945 184.018C116.473 186.805 109.968 195.498 109.968 205.372V237.871C109.968 244.017 114.951 249 121.097 249H276.904C283.05 249 288.032 244.017 288.032 237.871V205.372C288.032 195.498 281.527 186.804 272.055 184.018Z" fill="#F1F5F8"/>
<path d="M217.548 249H180.452L173.032 174.807H224.968L217.548 249Z" fill="#387CEE"/>
<path d="M173.032 174.807L174.143 185.911C180.256 192.741 189.113 197.065 199 197.065C208.888 197.065 217.745 192.741 223.858 185.911L224.968 174.807H173.032Z" fill="#2476FF"/>
<path d="M199 189.645C184.658 189.645 173.032 178.019 173.032 163.678V137.71H224.968V163.678C224.968 178.019 213.342 189.645 199 189.645Z" fill="#FFE4B4"/>
<path d="M173.032 153.405C180.826 157.568 189.664 159.968 199 159.968C208.336 159.968 217.174 157.568 224.968 153.405V137.71H173.032V153.405Z" fill="#F7D291" fill-opacity="0.68"/>
<path d="M249.081 89.4837H247.226V52.3872H150.774V89.4841H148.919C143.818 89.4841 139.645 93.6574 139.645 98.7583C139.645 103.859 143.818 108.032 148.919 108.032H150.961C152.862 132.928 173.618 152.549 199 152.549C224.382 152.549 245.138 132.928 247.039 108.032H249.081C254.182 108.032 258.355 103.859 258.355 98.7583C258.355 93.6574 254.182 89.4837 249.081 89.4837Z" fill="#FFE3B3"/>
<path d="M176.742 100.935C174.691 100.935 173.032 99.2741 173.032 97.2257V93.516C173.032 91.4676 174.692 89.8064 176.742 89.8064C178.792 89.8064 180.452 91.4676 180.452 93.516V97.2257C180.452 99.2746 178.792 100.935 176.742 100.935Z" fill="black"/>
<path d="M221.258 100.935C219.207 100.935 217.548 99.2741 217.548 97.2257V93.516C217.548 91.4676 219.208 89.8064 221.258 89.8064C223.309 89.8064 224.968 91.4676 224.968 93.516V97.2257C224.968 99.2746 223.309 100.935 221.258 100.935Z" fill="black"/>
<path d="M180.452 85.774H173.032C170.982 85.774 169.323 84.1128 169.323 82.0644C169.323 80.0159 170.982 78.3547 173.032 78.3547H180.452C182.502 78.3547 184.161 80.0159 184.161 82.0644C184.161 84.1128 182.502 85.774 180.452 85.774Z" fill="#0E1A38"/>
<path d="M224.967 85.774H217.548C215.498 85.774 213.839 84.1128 213.839 82.0644C213.839 80.0159 215.498 78.3547 217.548 78.3547H224.967C227.018 78.3547 228.677 80.0159 228.677 82.0644C228.677 84.1128 227.018 85.774 224.967 85.774Z" fill="#0E1A38"/>
<path d="M150.774 52.3872V89.4841H149.245C145.021 89.4841 141.076 92.1606 139.982 96.2404C138.328 102.41 142.999 108.033 148.919 108.033H150.961C152.862 132.928 173.618 152.549 199 152.549C201.538 152.549 204.012 152.302 206.443 151.924C183.329 148.357 165.613 128.436 165.613 104.323V81.7796C165.613 73.0706 172.968 65.981 181.648 66.6962C184.077 66.8965 186.628 67.0034 189.309 67.0034C200.066 67.0034 212.077 65.2865 225.009 61.9008C230.659 60.4215 235.519 56.9778 238.839 52.3872H150.774Z" fill="#FFE4B4"/>
<path d="M168.859 37.5482L169.322 52.3868C169.322 52.3868 158.193 63.5158 158.193 78.3544V82.9337C158.193 86.6752 155.407 89.8315 151.694 90.2959L143.354 91.3386V59.8066C143.355 47.5137 154.947 36.9301 168.859 37.5482Z" fill="#0E1A38"/>
<path d="M243.445 193.283L236.097 185.936L243.961 175.451C245.661 173.184 244.893 169.93 242.358 168.663L224.968 159.968L199 249H221.258L244.834 201.847C246.262 198.991 245.703 195.541 243.445 193.283Z" fill="#DBD9DC"/>
<path d="M229.141 26.4193L228.677 52.3869C228.677 52.3869 239.806 63.5158 239.806 78.3544V82.9338C239.806 86.6753 242.592 89.8315 246.305 90.296L254.645 91.3386V48.6777C254.645 36.3848 243.053 25.8012 229.141 26.4193Z" fill="#0E1A38"/>
<path d="M199 126.581C193.432 126.581 188.298 124.795 185.266 121.802C183.806 120.36 183.792 118.013 185.23 116.557C186.675 115.097 189.023 115.082 190.475 116.52C191.71 117.738 194.681 119.161 199 119.161C203.318 119.161 206.289 117.738 207.524 116.52C208.977 115.082 211.324 115.097 212.769 116.557C214.208 118.013 214.193 120.361 212.733 121.802C209.702 124.795 204.568 126.581 199 126.581Z" fill="#0E1A38" fill-opacity="0.9"/>
<path d="M154.556 193.283L161.904 185.936L154.04 175.451C152.34 173.184 153.107 169.93 155.642 168.663L173.032 159.968L199 249H176.742L153.166 201.847C151.738 198.991 152.297 195.541 154.556 193.283Z" fill="#DBD9DC"/>
<path d="M206.187 19C175.237 19 169.306 28.4089 145.473 35.9998C143.835 36.5213 143.098 38.4184 144.024 39.8662C149.196 47.9557 168.444 69.0412 223.13 54.7232C229.533 53.0467 234.458 47.8834 235.756 41.3922C237.26 33.8718 232.69 26.4238 225.818 23.0187C220.36 20.3144 213.202 19 206.187 19Z" fill="#0E1A38"/>
<path d="M161.903 249H132.225C130.177 249 128.516 247.339 128.516 245.29V230.452C128.516 228.403 130.177 226.742 132.225 226.742H161.903C163.952 226.742 165.613 228.403 165.613 230.452V245.29C165.613 247.339 163.952 249 161.903 249Z" fill="#387CEE"/>
<path d="M147.065 234.161C145.014 234.161 143.355 232.502 143.355 230.452V219.323C143.355 217.272 145.014 215.613 147.065 215.613C149.115 215.613 150.774 217.273 150.774 219.323V230.452C150.774 232.502 149.115 234.161 147.065 234.161Z" fill="white"/>
<path d="M249.647 214.076C260.583 220.591 261.266 225.139 257.928 234C248.599 227.336 246.415 223.042 249.647 214.076Z" fill="url(#paint0_linear)" fill-opacity="0.46"/>
<path d="M246.125 216.593C245.418 228.879 248.771 231.885 257.886 234C257.581 222.921 255.267 218.849 246.125 216.593Z" fill="#387CEE"/>
<defs>
<linearGradient id="paint0_linear" x1="246.349" y1="218.965" x2="261.277" y2="229.035" gradientUnits="userSpaceOnUse">
<stop stop-color="#0050D5"/>
<stop offset="1" stop-color="#4BBBFF"/>
</linearGradient>
</defs>
</svg>
