<svg width="120" height="120" viewBox="0 0 120 120" fill="none" xmlns="http://www.w3.org/2000/svg">
<g clip-path="url(#clip0)">
<path d="M109.304 14.5376C102.388 7.5741 93.19 3.73926 83.4053 3.73926C74.7543 3.73926 66.5624 6.73691 60.0001 12.2445C53.4376 6.73668 45.2457 3.73926 36.5947 3.73926C26.8103 3.73926 17.6129 7.5741 10.696 14.5379C-3.56567 28.8971 -3.56567 52.2614 10.696 66.6209L60.0001 116.261L109.304 66.6204C123.565 52.2612 123.565 28.8971 109.304 14.5376ZM104.317 61.6676L60.0001 106.287L15.6833 61.6676C4.13425 50.0393 4.13425 31.1185 15.6833 19.4904C21.2701 13.8652 28.6972 10.7675 36.595 10.7675C44.4927 10.7675 51.9198 13.8654 57.5068 19.4904L60.0001 22.0008L62.4936 19.4904C68.0807 13.8652 75.5075 10.7675 83.4055 10.7675C91.3035 10.7675 98.7303 13.8654 104.317 19.4904C115.866 31.1187 115.866 50.0396 104.317 61.6676Z" fill="#062E70"/>
<path d="M60.0002 26.4639C44.4984 26.4639 31.8865 39.0756 31.8865 54.5776C31.8865 70.0796 44.4984 82.6914 60.0002 82.6914C75.502 82.6914 88.114 70.0796 88.114 54.5776C88.114 39.0756 75.5022 26.4639 60.0002 26.4639ZM60.0002 75.6629C48.3738 75.6629 38.9149 66.204 38.9149 54.5776C38.9149 42.9512 48.3738 33.4923 60.0002 33.4923C71.6266 33.4923 81.0855 42.9512 81.0855 54.5776C81.0855 66.204 71.6269 75.6629 60.0002 75.6629Z" fill="#062E70"/>
<path d="M63.5142 51.0644V41.2246H56.486V51.0644H46.8804V58.0928H56.486V67.4641H63.5142V58.0928H73.1198V51.0644H63.5142Z" fill="#062E70"/>
</g>
<defs>
<clipPath id="clip0">
<rect width="120" height="120" fill="white"/>
</clipPath>
</defs>
</svg>
