<svg width="95" height="95" viewBox="0 0 95 95" fill="none" xmlns="http://www.w3.org/2000/svg">
<g clip-path="url(#clip0)">
<path d="M92.5597 8.51053C90.2599 5.46152 86.7506 3.71297 82.9314 3.71297H81.3146V2.78527C81.3146 1.24824 80.0685 0.00213867 78.5315 0.00213867C76.9945 0.00213867 75.7484 1.24824 75.7484 2.78527V10.2069C75.7484 11.744 76.9945 12.9901 78.5315 12.9901C80.0685 12.9901 81.3146 11.744 81.3146 10.2069V9.27923H82.9314C84.9878 9.27923 86.8775 10.2209 88.1158 11.8625C89.3541 13.5042 89.7404 15.5799 89.1755 17.5572L81.7887 43.4109C79.7273 50.6257 73.0471 55.6645 65.5436 55.6645C58.0401 55.6645 51.3598 50.6255 49.2985 43.4109L41.9118 17.557C41.3469 15.5797 41.7332 13.504 42.9715 11.8623C44.2098 10.2205 46.0995 9.27904 48.1559 9.27904H49.7725V10.2068C49.7725 11.7438 51.0186 12.9899 52.5556 12.9899C54.0927 12.9899 55.3388 11.7438 55.3388 10.2068V2.78508C55.3388 1.24805 54.0927 0.00195312 52.5556 0.00195312C51.0186 0.00195312 49.7725 1.24805 49.7725 2.78508V3.71279H48.1559C44.3369 3.71279 40.8274 5.46152 38.5276 8.51034C36.2276 11.5594 35.5105 15.414 36.5597 19.086L43.9465 44.9398C45.2984 49.6711 48.0893 53.738 52.0176 56.7013C52.8596 57.3364 53.7377 57.9032 54.6435 58.4083L62.7606 77.567V79.5756C62.7606 85.0111 58.3386 89.4331 52.9032 89.4331C47.4677 89.4331 43.0457 85.0111 43.0457 79.5756V60.4886C43.0457 51.6902 35.8875 44.532 27.0891 44.532C18.2907 44.532 11.1325 51.6902 11.1325 60.4886V67.077C4.78846 68.3698 0 73.9923 0 80.7126C0 88.3857 6.24255 94.6283 13.9156 94.6283C21.5887 94.6283 27.8313 88.3857 27.8313 80.7126C27.8313 73.9925 23.0428 68.37 16.6988 67.077V60.4886C16.6988 54.7594 21.3599 50.0982 27.0891 50.0982C32.8183 50.0982 37.4794 54.7594 37.4794 60.4886V79.5756C37.4794 88.0803 44.3985 94.9994 52.9032 94.9994C61.4078 94.9994 68.3269 88.0803 68.3269 79.5756V77.567L76.4441 58.4083C77.35 57.9032 78.2281 57.3364 79.0699 56.7013C82.9982 53.7382 85.7891 49.6711 87.141 44.9398L94.5278 19.086C95.577 15.4142 94.8595 11.5594 92.5597 8.51053ZM22.265 80.7126C22.265 85.3165 18.5195 89.062 13.9156 89.062C9.31179 89.062 5.56625 85.3165 5.56625 80.7126C5.56625 76.1088 9.31179 72.3633 13.9156 72.3633C18.5195 72.3633 22.265 76.1088 22.265 80.7126ZM65.5437 69.8675L61.749 60.9109C62.9916 61.1215 64.2592 61.2308 65.5439 61.2308C66.8286 61.2308 68.0961 61.1215 69.3386 60.9109L65.5437 69.8675Z" fill="#062E70"/>
<path d="M13.9156 83.4961C15.4528 83.4961 16.6989 82.25 16.6989 80.7129C16.6989 79.1758 15.4528 77.9297 13.9156 77.9297C12.3785 77.9297 11.1324 79.1758 11.1324 80.7129C11.1324 82.25 12.3785 83.4961 13.9156 83.4961Z" fill="#062E70"/>
</g>
<defs>
<clipPath id="clip0">
<rect width="95" height="95" fill="white"/>
</clipPath>
</defs>
</svg>
