<svg width="100" height="100" viewBox="0 0 100 100" fill="none" xmlns="http://www.w3.org/2000/svg">
<circle cx="50" cy="50" r="50" fill="#0050D5"/>
<rect x="22" y="22" width="56" height="55" rx="7" fill="#F1F6F9"/>
<path d="M37.5 66V41H31.5V66H37.5ZM44 41V66H50V41H44ZM47 46.5C48.1538 49.2692 48.1536 49.2693 48.1534 49.2694C48.1534 49.2694 48.1532 49.2695 48.1532 49.2695C48.1532 49.2695 48.1533 49.2694 48.1537 49.2693C48.1543 49.269 48.1557 49.2685 48.1578 49.2676C48.162 49.2659 48.169 49.263 48.1787 49.2589C48.1982 49.2509 48.2286 49.2384 48.2693 49.2218C48.3508 49.1885 48.4734 49.1388 48.6319 49.0756C48.949 48.9491 49.4087 48.769 49.9695 48.5582C51.0958 48.1349 52.6075 47.5965 54.1795 47.122C55.7748 46.6404 57.3247 46.2577 58.5576 46.1011C59.177 46.0224 59.6087 46.0155 59.8714 46.0408C60.1886 46.0714 59.972 46.1195 59.6259 45.8426L63.3741 41.1574C62.403 40.3805 61.2646 40.1473 60.447 40.0685C59.5749 39.9845 58.6589 40.0401 57.8018 40.1489C56.0816 40.3673 54.1627 40.8596 52.4455 41.378C50.705 41.9035 49.0605 42.4901 47.8586 42.9418C47.2553 43.1685 46.758 43.3634 46.4092 43.5025C46.2346 43.5721 46.0969 43.6279 46.0014 43.6669C45.9536 43.6864 45.9164 43.7017 45.8903 43.7125C45.8772 43.7179 45.867 43.7221 45.8596 43.7252C45.8559 43.7267 45.8529 43.7279 45.8507 43.7289C45.8496 43.7293 45.8486 43.7297 45.8479 43.7301C45.8475 43.7302 45.8471 43.7304 45.8469 43.7305C45.8465 43.7306 45.8462 43.7308 47 46.5ZM59.6259 45.8426C59.297 45.5794 59.1982 45.3384 59.2249 45.3934C59.238 45.4203 59.2907 45.5434 59.3599 45.8058C59.4986 46.3321 59.6259 47.1148 59.7246 48.1453C59.9202 50.1886 59.9685 52.8131 59.9377 55.4651C59.9071 58.0987 59.7997 60.6807 59.6994 62.6098C59.6493 63.5728 59.6012 64.3693 59.5657 64.9236C59.548 65.2007 59.5334 65.417 59.5233 65.5631C59.5183 65.6362 59.5144 65.6917 59.5118 65.7284C59.5105 65.7468 59.5095 65.7604 59.5089 65.7693C59.5085 65.7737 59.5083 65.7769 59.5082 65.7789C59.5081 65.7798 59.508 65.7805 59.508 65.7809C59.508 65.7811 59.508 65.7811 59.508 65.7812C59.508 65.7812 59.508 65.7811 62.5 66C65.492 66.2189 65.492 66.2187 65.492 66.2183C65.4921 66.2181 65.4921 66.2177 65.4921 66.2172C65.4922 66.2164 65.4923 66.2152 65.4924 66.2137C65.4926 66.2107 65.4929 66.2065 65.4933 66.201C65.4941 66.1901 65.4952 66.1744 65.4967 66.1539C65.4996 66.1129 65.5038 66.053 65.5091 65.9754C65.5198 65.8203 65.535 65.5943 65.5534 65.3069C65.5902 64.7323 65.6398 63.9116 65.6913 62.9214C65.7941 60.9443 65.9054 58.2763 65.9373 55.5349C65.969 52.8119 65.9235 49.9364 65.6973 47.5734C65.585 46.4008 65.4194 45.2538 65.1616 44.2762C65.0326 43.7867 64.8611 43.2642 64.6215 42.7711C64.3956 42.3061 64.0155 41.6706 63.3741 41.1574L59.6259 45.8426Z" fill="#0050D5"/>
<ellipse cx="34.5" cy="34" rx="4.5" ry="4" fill="#0050D5"/>
</svg>
