<svg width="120" height="120" viewBox="0 0 120 120" fill="none" xmlns="http://www.w3.org/2000/svg">
<path d="M104.302 10V10C111.363 10.0521 117.011 15.9478 117 23.138M104.302 10L117 23.138M104.302 10H104.295H32.5183C25.7222 10 20.2231 15.6218 20.2211 22.4786C20.2211 22.4797 20.2211 22.4809 20.2211 22.4821L19.7657 86.4417H6.75105C5.09814 86.4417 4 87.906 4 89.3641V98.3041C4 106.848 10.399 113.933 18.3806 114.816V115H19.3806H79.8239H80.8239V115C80.834 115 80.8441 115 80.8543 115L80.8973 115L80.9034 115C89.8674 114.946 97.047 107.445 97.002 98.3002V42.4843M104.302 10L97.002 42.4843M117 23.138C117 23.1385 117 23.1391 117 23.1397M117 23.138L117 23.1397M117 23.1397L117 39.5411C117 40.9835 115.915 42.4843 114.249 42.4843H97.002M117 23.1397L97.002 42.4843M25.3609 86.4417L25.8163 22.5019H25.8163V22.4948C25.8163 18.738 28.8355 15.6951 32.5183 15.6951H93.7693C92.3189 17.8501 91.4069 20.3953 91.4069 23.1876V98.3005C91.4069 104.366 86.695 109.305 80.8947 109.305H80.8622C75.011 109.26 70.2494 104.356 70.2631 98.2748V98.2725V89.3658V89.3641H69.2631L25.3609 86.4417ZM111.405 23.1524V23.1569V23.1704V36.7892H97.002V23.184C97.002 19.0831 100.325 15.6951 104.242 15.6951H104.287C108.218 15.7379 111.424 19.0432 111.405 23.1524ZM20.167 109.305H20.1547C14.3515 109.305 9.59514 104.361 9.59514 98.3023V92.1368H64.668L64.668 98.2682C64.668 98.2686 64.668 98.269 64.668 98.2694C64.6545 102.338 66.0941 106.261 68.6997 109.305H20.167Z" fill="#062E70" stroke="#062E70" stroke-width="2"/>
<path d="M47.4652 56.1554L56.533 62.6781C57.1247 63.1073 57.9071 63.1073 58.4988 62.6781L67.5392 56.1573C70.6797 53.9029 72.9993 49.19 72.9993 45.1937V31.9966C73.0182 31.299 72.6524 30.6521 72.0615 30.3349L58.2549 23.1897C57.7705 22.9368 57.202 22.9368 56.7177 23.1897L42.9368 30.3151C42.346 30.6322 41.981 31.2791 42.0008 31.9767V45.1937C42.0008 49.19 44.3255 53.9029 47.4652 56.1554ZM45.5183 33.1314L57.5 26.9114L69.4817 33.1486V45.1937C69.4817 47.9811 67.7453 51.5266 65.5545 53.0979L57.4794 58.9085L49.4361 53.0988C47.2453 51.5257 45.5183 47.9811 45.5183 45.1937V33.1314Z" fill="#062E70"/>
<path d="M54.3231 48.4489C54.6732 48.7989 55.1516 48.9973 55.6519 49H55.6565C56.155 48.9982 56.6325 48.8025 56.9834 48.4561L64.4494 41.1406C65.1834 40.4225 65.1834 39.2574 64.4503 38.5393C63.7181 37.8204 62.5286 37.8204 61.7955 38.5384L55.6629 44.5443L53.2115 42.1199C52.4812 41.3982 51.2926 41.3928 50.5558 42.1082C49.819 42.8236 49.8144 43.9878 50.5439 44.7095L54.3231 48.4489Z" fill="#062E70"/>
<path d="M80.1923 68H36.8077C35.8094 68 35 68.8955 35 70C35 71.1045 35.8094 72 36.8077 72H80.1923C81.1906 72 82 71.1045 82 70C82 68.8955 81.1906 68 80.1923 68Z" fill="#062E70"/>
<path d="M80.1923 77H36.8077C35.8094 77 35 77.8955 35 79C35 80.1045 35.8094 81 36.8077 81H80.1923C81.1906 81 82 80.1045 82 79C82 77.8955 81.1906 77 80.1923 77Z" fill="#062E70"/>
</svg>
