<svg width="120" height="120" viewBox="0 0 120 120" fill="none" xmlns="http://www.w3.org/2000/svg">
<g clip-path="url(#clip0)">
<path d="M116.918 10.7496C114.013 6.89825 109.58 4.68956 104.755 4.68956H102.713V3.51772C102.713 1.57621 101.139 0.00218749 99.1977 0.00218749C97.2562 0.00218749 95.6821 1.57621 95.6821 3.51772V12.8925C95.6821 14.834 97.2562 16.408 99.1977 16.408C101.139 16.408 102.713 14.834 102.713 12.8925V11.7206H104.755C107.353 11.7206 109.74 12.91 111.304 14.9837C112.868 17.0574 113.356 19.6793 112.643 22.177L103.312 54.8344C100.708 63.9478 92.27 70.3125 82.7919 70.3125C73.3138 70.3125 64.8756 63.9475 62.2717 54.8344L52.9413 22.1767C52.2276 19.6791 52.7156 17.0572 54.2798 14.9835C55.8439 12.9096 58.231 11.7204 60.8285 11.7204H62.8705V12.8922C62.8705 14.8337 64.4446 16.4078 66.3861 16.4078C68.3276 16.4078 69.9016 14.8337 69.9016 12.8922V3.51748C69.9016 1.57597 68.3276 0.00195312 66.3861 0.00195312C64.4446 0.00195312 62.8705 1.57597 62.8705 3.51748V4.68932H60.8285C56.0045 4.68932 51.5714 6.89825 48.6664 10.7494C45.7612 14.6008 44.8553 19.4698 46.1807 24.1082L55.5114 56.7656C57.219 62.742 60.7444 67.8791 65.7064 71.6222C66.77 72.4244 67.8792 73.1404 69.0234 73.7784L79.2766 97.9788V100.516C79.2766 107.382 73.6909 112.968 66.825 112.968C59.9592 112.968 54.3735 107.382 54.3735 100.516V76.4061C54.3735 65.2924 45.3316 56.2504 34.2178 56.2504C23.1041 56.2504 14.0621 65.2924 14.0621 76.4061V84.7283C6.04858 86.3614 0 93.4635 0 101.952C0 111.645 7.88533 119.53 17.5776 119.53C27.27 119.53 35.1553 111.645 35.1553 101.952C35.1553 93.4637 29.1067 86.3616 21.0932 84.7283V76.4061C21.0932 69.1693 26.981 63.2815 34.2178 63.2815C41.4546 63.2815 47.3425 69.1693 47.3425 76.4061V100.516C47.3425 111.259 56.0823 119.999 66.825 119.999C77.5678 119.999 86.3076 111.259 86.3076 100.516V97.9788L96.561 73.7784C97.7052 73.1404 98.8145 72.4244 99.8778 71.6222C104.84 67.8793 108.365 62.742 110.073 56.7656L119.404 24.1082C120.729 19.47 119.823 14.6008 116.918 10.7496V10.7496ZM28.1242 101.952C28.1242 107.768 23.393 112.499 17.5776 112.499C11.7623 112.499 7.03106 107.768 7.03106 101.952C7.03106 96.1369 11.7623 91.4057 17.5776 91.4057C23.393 91.4057 28.1242 96.1369 28.1242 101.952ZM82.7921 88.2532L77.9988 76.9395C79.5684 77.2055 81.1696 77.3436 82.7923 77.3436C84.4151 77.3436 86.0161 77.2055 87.5857 76.9395L82.7921 88.2532Z" fill="#062E70"/>
<path d="M17.5776 105.469C19.5193 105.469 21.0933 103.895 21.0933 101.953C21.0933 100.011 19.5193 98.4375 17.5776 98.4375C15.636 98.4375 14.062 100.011 14.062 101.953C14.062 103.895 15.636 105.469 17.5776 105.469Z" fill="#062E70"/>
</g>
<defs>
<clipPath id="clip0">
<rect width="120" height="120" fill="white"/>
</clipPath>
</defs>
</svg>
