<svg width="120" height="120" viewBox="0 0 120 120" fill="none" xmlns="http://www.w3.org/2000/svg">
<path d="M60 18.75C61.9416 18.75 63.5156 17.176 63.5156 15.2344C63.5156 13.2927 61.9416 11.7188 60 11.7188C58.0584 11.7188 56.4844 13.2927 56.4844 15.2344C56.4844 17.176 58.0584 18.75 60 18.75Z" fill="#062E70"/>
<path d="M59.9999 68.9414C62.7088 68.9414 65.2562 67.8855 67.1732 65.9683C68.5462 64.5954 68.5462 62.3695 67.1732 60.9965C65.8005 59.6236 63.5744 59.6236 62.2014 60.9965C61.6122 61.5855 60.8303 61.9099 59.9997 61.9099C59.169 61.9099 58.3872 61.5855 57.7979 60.9965C56.4252 59.6236 54.1991 59.6236 52.8261 60.9965C51.4531 62.3695 51.4531 64.5954 52.8261 65.9683C54.7435 67.8855 57.2912 68.9414 59.9999 68.9414V68.9414Z" fill="#062E70"/>
<path d="M38.9062 98.4375H31.875C29.9334 98.4375 28.3594 100.012 28.3594 101.953C28.3594 103.895 29.9334 105.469 31.875 105.469H38.9062C40.8478 105.469 42.4219 103.895 42.4219 101.953C42.4219 100.012 40.8478 98.4375 38.9062 98.4375Z" fill="#062E70"/>
<path d="M85.7812 82.0312H75.2344V76.7353C80.9407 72.2245 84.6094 65.2437 84.6094 57.4219V22.2656C84.6094 16.7077 80.287 12.1432 74.8275 11.7495C73.2469 5.02383 67.2009 0 60 0C52.7988 0 46.7531 5.02383 45.1725 11.7495C39.7132 12.1432 35.3906 16.7077 35.3906 22.2656V57.4219C35.3906 65.2437 39.0593 72.2245 44.7656 76.7353V82.0312H34.2188C23.2338 82.0312 14.2969 90.9682 14.2969 101.953V116.484C14.2969 118.426 15.8709 120 17.8125 120H102.188C104.129 120 105.703 118.426 105.703 116.484V101.953C105.703 90.9682 96.7662 82.0312 85.7812 82.0312ZM78.5156 109.453C78.5156 107.515 80.0927 105.938 82.0312 105.938C83.9698 105.938 85.5469 107.515 85.5469 109.453C85.5469 111.392 83.9698 112.969 82.0312 112.969C80.0927 112.969 78.5156 111.392 78.5156 109.453ZM78.5156 89.0625V99.5109C74.4237 100.962 71.4844 104.87 71.4844 109.453C71.4844 110.685 71.6988 111.868 72.0891 112.969H63.5156V105.305L73.6673 89.0625H78.5156ZM60 7.03125C64.5232 7.03125 68.2031 10.7112 68.2031 15.2344C68.2031 19.7576 64.5232 23.4375 60 23.4375C55.4768 23.4375 51.7969 19.7576 51.7969 15.2344C51.7969 10.7112 55.4768 7.03125 60 7.03125ZM42.4219 22.2656C42.4219 20.5809 43.6137 19.1705 45.198 18.8297C46.8185 25.5 52.8382 30.4688 60 30.4688C67.1616 30.4688 73.1815 25.5 74.802 18.8297C76.3863 19.1705 77.5781 20.5809 77.5781 22.2656V35.1562H42.4219V22.2656ZM42.4219 57.4219V42.1875H77.5781V57.4219C77.5781 67.1145 69.6926 75 60 75C50.3074 75 42.4219 67.1145 42.4219 57.4219ZM60 82.0312C62.8753 82.0312 65.636 81.5339 68.2031 80.6236V84.5386L60 97.6636L51.7969 84.5386V80.6236C54.364 81.5339 57.1247 82.0312 60 82.0312ZM21.3281 101.953C21.3281 94.8452 27.1109 89.0625 34.2188 89.0625H46.3327L56.4844 105.305V112.969H21.3281V101.953ZM98.6719 112.969H91.9734C92.3637 111.868 92.5781 110.685 92.5781 109.453C92.5781 104.87 89.6388 100.962 85.5469 99.5109V89.0625H85.7812C92.8891 89.0625 98.6719 94.8452 98.6719 101.953V112.969Z" fill="#062E70"/>
</svg>
