<svg width="95" height="95" viewBox="0 0 95 95" fill="none" xmlns="http://www.w3.org/2000/svg">
<path d="M47.5 14.8438C49.0371 14.8438 50.2832 13.5977 50.2832 12.0605C50.2832 10.5234 49.0371 9.27734 47.5 9.27734C45.9629 9.27734 44.7168 10.5234 44.7168 12.0605C44.7168 13.5977 45.9629 14.8438 47.5 14.8438Z" fill="#062E70"/>
<path d="M47.4999 54.5785C49.6445 54.5785 51.6612 53.7426 53.1788 52.2249C54.2657 51.1379 54.2657 49.3758 53.1788 48.2888C52.092 47.2019 50.3297 47.2019 49.2428 48.2888C48.7763 48.7551 48.1573 49.0119 47.4997 49.0119C46.8422 49.0119 46.2232 48.7551 45.7567 48.2888C44.67 47.2019 42.9076 47.2019 41.8207 48.2888C40.7338 49.3758 40.7338 51.1379 41.8207 52.2249C43.3387 53.7426 45.3556 54.5785 47.4999 54.5785Z" fill="#062E70"/>
<path d="M30.8008 77.9297H25.2344C23.6973 77.9297 22.4512 79.1758 22.4512 80.7129C22.4512 82.25 23.6973 83.4961 25.2344 83.4961H30.8008C32.3379 83.4961 33.584 82.25 33.584 80.7129C33.584 79.1758 32.3379 77.9297 30.8008 77.9297Z" fill="#062E70"/>
<path d="M67.9102 64.9414H59.5605V60.7488C64.0781 57.1778 66.9824 51.6512 66.9824 45.459V17.627C66.9824 13.2269 63.5606 9.61337 59.2384 9.30165C57.9871 3.9772 53.2007 0 47.5 0C41.7991 0 37.0129 3.9772 35.7616 9.30165C31.4396 9.61337 28.0176 13.2269 28.0176 17.627V45.459C28.0176 51.6512 30.9219 57.1778 35.4395 60.7488V64.9414H27.0898C18.3934 64.9414 11.3184 72.0165 11.3184 80.7129V92.2168C11.3184 93.7539 12.5645 95 14.1016 95H80.8984C82.4355 95 83.6816 93.7539 83.6816 92.2168V80.7129C83.6816 72.0165 76.6066 64.9414 67.9102 64.9414ZM62.1582 86.6504C62.1582 85.1157 63.4067 83.8672 64.9414 83.8672C66.4761 83.8672 67.7246 85.1157 67.7246 86.6504C67.7246 88.1851 66.4761 89.4336 64.9414 89.4336C63.4067 89.4336 62.1582 88.1851 62.1582 86.6504ZM62.1582 70.5078V78.7795C58.9187 79.9284 56.5918 83.022 56.5918 86.6504C56.5918 87.626 56.7616 88.5625 57.0705 89.4336H50.2832V83.3666L58.32 70.5078H62.1582ZM47.5 5.56641C51.0809 5.56641 53.9941 8.47968 53.9941 12.0605C53.9941 15.6414 51.0809 18.5547 47.5 18.5547C43.9191 18.5547 41.0059 15.6414 41.0059 12.0605C41.0059 8.47968 43.9191 5.56641 47.5 5.56641ZM33.584 17.627C33.584 16.2932 34.5275 15.1766 35.7818 14.9068C37.0647 20.1875 41.8302 24.1211 47.5 24.1211C53.1696 24.1211 57.9353 20.1875 59.2182 14.9068C60.4725 15.1766 61.416 16.2932 61.416 17.627V27.832H33.584V17.627ZM33.584 45.459V33.3984H61.416V45.459C61.416 53.1323 55.1733 59.375 47.5 59.375C39.8267 59.375 33.584 53.1323 33.584 45.459ZM47.5 64.9414C49.7763 64.9414 51.9618 64.5477 53.9941 63.827V66.9264L47.5 77.317L41.0059 66.9264V63.827C43.0382 64.5477 45.2237 64.9414 47.5 64.9414ZM16.8848 80.7129C16.8848 75.0858 21.4628 70.5078 27.0898 70.5078H36.68L44.7168 83.3666V89.4336H16.8848V80.7129ZM78.1152 89.4336H72.8123C73.1212 88.5625 73.291 87.626 73.291 86.6504C73.291 83.022 70.9641 79.9284 67.7246 78.7795V70.5078H67.9102C73.5372 70.5078 78.1152 75.0858 78.1152 80.7129V89.4336Z" fill="#062E70"/>
</svg>
