<svg width="120" height="120" viewBox="0 0 120 120" fill="none" xmlns="http://www.w3.org/2000/svg">
<g clip-path="url(#clip0)">
<path d="M98.554 14.2794C87.1861 12.2422 76.7175 6.03406 71.4891 2.51492C68.073 0.215469 64.1002 -1 59.9995 -1C55.8989 -1 51.926 0.215469 48.5102 2.51492C43.2818 6.03406 32.8132 12.2424 21.4455 14.2796C14.7129 15.4859 9.82617 21.3113 9.82617 28.1305V56.4216C9.82617 65.7678 12.4409 74.8787 17.5978 83.5011C21.6321 90.2466 27.2222 96.6936 34.2122 102.663C45.9654 112.7 57.6035 117.934 58.0931 118.152L59.9995 119L61.9064 118.152C62.396 117.934 74.0341 112.7 85.7873 102.663C92.7771 96.6936 98.3672 90.2466 102.402 83.5011C107.559 74.8784 110.173 65.7678 110.173 56.4216V28.1302C110.173 21.3111 105.287 15.4857 98.554 14.2794ZM100.795 56.4214C100.795 70.355 93.7556 83.4624 79.8726 95.3802C71.8027 102.308 63.6094 106.823 59.9998 108.656C51.7027 104.44 19.2042 86.0302 19.2042 56.4216V28.1302C19.2042 25.858 20.8425 23.915 23.0998 23.5105C36.1587 21.1702 47.9067 14.2257 53.7469 10.2948C55.6095 9.04109 57.7718 8.37828 59.9995 8.37828C62.2273 8.37828 64.3894 9.04109 66.2519 10.295C72.0923 14.2259 83.8402 21.1705 96.8991 23.5109C99.1561 23.9155 100.795 25.8582 100.795 28.1307V56.4214Z" fill="#062E70"/>
<path d="M52.7375 68.0068L36.711 53.0025L30.3013 59.8486L53.342 81.4196L89.9927 40.321L82.9933 34.0791L52.7375 68.0068Z" fill="#062E70"/>
</g>
<defs>
<clipPath id="clip0">
<rect width="120" height="120" fill="white"/>
</clipPath>
</defs>
</svg>
