<svg width="95" height="95" viewBox="0 0 95 95" fill="none" xmlns="http://www.w3.org/2000/svg">
<g clip-path="url(#clip0)">
<path d="M78.1595 12.0962C69.1599 10.4834 60.8723 5.56863 56.7331 2.78265C54.0287 0.962246 50.8835 0 47.6372 0C44.3909 0 41.2457 0.962246 38.5415 2.78265C34.4023 5.56863 26.1147 10.4836 17.1153 12.0964C11.7853 13.0514 7.91663 17.6631 7.91663 23.0616V45.4588C7.91663 52.8578 9.98659 60.0706 14.0692 66.8967C17.263 72.2369 21.6885 77.3408 27.2222 82.0665C36.5268 90.0125 45.7404 94.1561 46.128 94.3285L47.6372 95L49.1468 94.3285C49.5344 94.1561 58.7479 90.0125 68.0526 82.0665C73.5861 77.3408 78.0116 72.2369 81.2056 66.8967C85.2882 60.0704 87.3581 52.8578 87.3581 45.4588V23.0614C87.3581 17.663 83.4895 13.0512 78.1595 12.0962ZM79.9333 45.4586C79.9333 56.4894 74.3608 66.8661 63.3701 76.301C56.9813 81.7853 50.495 85.3601 47.6374 86.8109C41.0688 83.4735 15.3409 68.8989 15.3409 45.4588V23.0614C15.3409 21.2626 16.6379 19.7244 18.4249 19.4041C28.7632 17.5514 38.0637 12.0537 42.6872 8.94169C44.1617 7.9492 45.8736 7.42447 47.6372 7.42447C49.4008 7.42447 51.1125 7.9492 52.587 8.94188C57.2107 12.0539 66.511 17.5516 76.8493 19.4045C78.6361 19.7247 79.9333 21.2627 79.9333 23.0618V45.4586Z" fill="#062E70"/>
<path d="M41.8881 54.6304L29.2004 42.7521L24.1261 48.1719L42.3667 65.2489L71.3818 32.7125L65.8406 27.771L41.8881 54.6304Z" fill="#062E70"/>
</g>
<defs>
<clipPath id="clip0">
<rect width="95" height="95" fill="white"/>
</clipPath>
</defs>
</svg>
