<svg width="390" height="254" viewBox="0 0 390 254" fill="none" xmlns="http://www.w3.org/2000/svg">
<g clip-path="url(#clip0)">
<circle cx="198" cy="255" r="150" fill="#466BEB" fill-opacity="0.25"/>
<circle cx="198" cy="240" r="180" fill="#466BEB" fill-opacity="0.25"/>
<circle cx="195" cy="213" r="195" fill="#466BEB" fill-opacity="0.25"/>
<path d="M272.055 202.018L232.957 190.519H165.044L125.945 202.018C116.473 204.805 109.968 213.498 109.968 223.372V255.871C109.968 262.017 114.951 267 121.097 267H276.904C283.05 267 288.032 262.017 288.032 255.871V223.372C288.032 213.498 281.527 204.804 272.055 202.018Z" fill="#F1F5F8"/>
<path d="M217.548 267H180.452L173.032 192.807H224.968L217.548 267Z" fill="#387CEE"/>
<path d="M173.032 192.807L174.143 203.911C180.256 210.741 189.113 215.065 199 215.065C208.888 215.065 217.745 210.741 223.858 203.911L224.968 192.807H173.032V192.807Z" fill="#2476FF"/>
<path d="M199 207.645C184.658 207.645 173.032 196.019 173.032 181.678V155.71H224.968V181.678C224.968 196.019 213.342 207.645 199 207.645Z" fill="#FFE4B4"/>
<path d="M173.032 171.405C180.826 175.568 189.664 177.968 199 177.968C208.336 177.968 217.174 175.568 224.968 171.405V155.71H173.032V171.405Z" fill="#F7D291" fill-opacity="0.68"/>
<path d="M249.081 107.484H247.226V70.3872H150.774V107.484H148.919C143.818 107.484 139.645 111.657 139.645 116.758C139.645 121.859 143.818 126.032 148.919 126.032H150.961C152.862 150.928 173.618 170.549 199 170.549C224.382 170.549 245.138 150.928 247.039 126.032H249.081C254.182 126.032 258.355 121.859 258.355 116.758C258.355 111.657 254.182 107.484 249.081 107.484Z" fill="#FFE3B3"/>
<path d="M176.742 118.935C174.691 118.935 173.032 117.274 173.032 115.226V111.516C173.032 109.468 174.692 107.806 176.742 107.806C178.792 107.806 180.452 109.468 180.452 111.516V115.226C180.452 117.275 178.792 118.935 176.742 118.935Z" fill="black"/>
<path d="M221.258 118.935C219.207 118.935 217.548 117.274 217.548 115.226V111.516C217.548 109.468 219.208 107.806 221.258 107.806C223.309 107.806 224.968 109.468 224.968 111.516V115.226C224.968 117.275 223.309 118.935 221.258 118.935Z" fill="black"/>
<path d="M181.702 101.773L175.034 105.025C173.191 105.924 170.972 105.158 170.074 103.317C169.176 101.476 169.939 99.2555 171.782 98.3567L178.45 95.1043C180.293 94.2053 182.513 94.9712 183.41 96.8123C184.308 98.6534 183.545 100.874 181.702 101.773Z" fill="#0E1A38"/>
<path d="M222.966 105.025L216.297 101.772C214.454 100.873 213.691 98.6531 214.589 96.812C215.487 94.9709 217.707 94.2052 219.55 95.104L226.218 98.3564C228.061 99.2553 228.824 101.476 227.926 103.317C227.028 105.158 224.809 105.924 222.966 105.025Z" fill="#0E1A38"/>
<path d="M150.774 70.3872V107.484H149.245C145.021 107.484 141.076 110.161 139.982 114.24C138.328 120.41 142.999 126.033 148.919 126.033H150.961C152.862 150.928 173.618 170.549 199 170.549C201.538 170.549 204.012 170.302 206.443 169.924C183.329 166.357 165.613 146.436 165.613 122.323V99.7796C165.613 91.0706 172.968 83.981 181.648 84.6962C184.077 84.8965 186.629 85.0034 189.309 85.0034C200.066 85.0034 212.077 83.2865 225.009 79.9008C230.659 78.4215 235.519 74.9778 238.839 70.3872H150.774Z" fill="#FFE4B4"/>
<path d="M168.859 55.5482L169.322 70.3868C169.322 70.3868 158.193 81.5158 158.193 96.3544V100.934C158.193 104.675 155.407 107.831 151.694 108.296L143.354 109.339V77.8066C143.355 65.5137 154.947 54.9301 168.859 55.5482Z" fill="#0E1A38"/>
<path d="M243.445 211.283L236.097 203.936L243.961 193.451C245.661 191.184 244.893 187.93 242.358 186.663L224.968 177.968L199 267H221.258L244.834 219.847C246.262 216.991 245.703 213.541 243.445 211.283Z" fill="#DBD9DC"/>
<path d="M229.141 44.4193L228.677 70.3869C228.677 70.3869 239.806 81.5158 239.806 96.3544V100.934C239.806 104.675 242.592 107.832 246.305 108.296L254.645 109.339V66.6777C254.645 54.3848 243.053 43.8012 229.141 44.4193Z" fill="#0E1A38"/>
<path d="M199.5 137C205.691 137 211.4 138.765 214.771 141.723C216.395 143.148 216.411 145.468 214.812 146.908C213.204 148.351 210.594 148.365 208.979 146.944C207.605 145.74 204.302 144.333 199.5 144.333C194.698 144.333 191.395 145.74 190.021 146.944C188.406 148.365 185.795 148.351 184.188 146.908C182.589 145.468 182.605 143.148 184.229 141.723C187.6 138.765 193.308 137 199.5 137Z" fill="#0E1A38" fill-opacity="0.9"/>
<path d="M154.556 211.283L161.904 203.936L154.04 193.451C152.34 191.184 153.107 187.93 155.642 186.663L173.032 177.968L199 267H176.742L153.166 219.847C151.738 216.991 152.297 213.541 154.556 211.283Z" fill="#DBD9DC"/>
<path d="M206.188 37C175.237 37 169.306 46.4089 145.473 53.9998C143.835 54.5213 143.098 56.4184 144.024 57.8662C149.196 65.9557 168.444 87.0412 223.13 72.7232C229.533 71.0467 234.458 65.8834 235.756 59.3922C237.26 51.8718 232.69 44.4238 225.818 41.0187C220.36 38.3144 213.202 37 206.188 37Z" fill="#0E1A38"/>
<path d="M161.903 267H132.225C130.177 267 128.516 265.339 128.516 263.29V248.452C128.516 246.403 130.177 244.742 132.225 244.742H161.903C163.952 244.742 165.613 246.403 165.613 248.452V263.29C165.613 265.339 163.952 267 161.903 267Z" fill="#387CEE"/>
<path d="M147.064 252.161C145.014 252.161 143.355 250.502 143.355 248.452V237.323C143.355 235.272 145.014 233.613 147.064 233.613C149.115 233.613 150.774 235.273 150.774 237.323V248.452C150.774 250.502 149.115 252.161 147.064 252.161Z" fill="white"/>
<path d="M249.647 232.076C260.583 238.591 261.266 243.139 257.928 252C248.599 245.336 246.415 241.042 249.647 232.076Z" fill="url(#paint0_linear)" fill-opacity="0.46"/>
<path d="M246.125 234.593C245.418 246.879 248.771 249.885 257.886 252C257.581 240.921 255.267 236.849 246.125 234.593Z" fill="#387CEE"/>
</g>
<defs>
<linearGradient id="paint0_linear" x1="246.349" y1="236.965" x2="261.277" y2="247.035" gradientUnits="userSpaceOnUse">
<stop stop-color="#0050D5"/>
<stop offset="1" stop-color="#4BBBFF"/>
</linearGradient>
<clipPath id="clip0">
<rect width="390" height="254" fill="white"/>
</clipPath>
</defs>
</svg>
