<svg width="95" height="95" viewBox="0 0 95 95" fill="none" xmlns="http://www.w3.org/2000/svg">
<path d="M74.0349 19.0271C75.4337 17.0579 76.2598 14.6547 76.2598 12.0605C76.2598 5.41036 70.8494 0 64.1992 0C57.549 0 52.1387 5.41036 52.1387 12.0605C52.1387 14.4506 52.8404 16.6784 54.0444 18.5547H40.9556C42.1596 16.6784 42.8613 14.4506 42.8613 12.0605C42.8613 5.41036 37.451 0 30.8008 0C24.1506 0 18.7402 5.41036 18.7402 12.0605C18.7402 14.6547 19.5663 17.0579 20.9651 19.0271C12.2693 20.9789 5.75195 28.7607 5.75195 38.0371V92.2168C5.75195 93.7539 6.99809 95 8.53516 95C10.0722 95 11.3184 93.7539 11.3184 92.2168V58.8963C12.1895 59.2052 13.126 59.375 14.1016 59.375H16.8848V65.8691C16.8848 70.4731 20.6304 74.2188 25.2344 74.2188C26.21 74.2188 27.1464 74.049 28.0176 73.74V86.6504C28.0176 91.2544 31.7632 95 36.3672 95C40.9712 95 44.7168 91.2544 44.7168 86.6504V59.375H47.5C48.4756 59.375 49.4121 59.2052 50.2832 58.8963V86.6504C50.2832 91.2544 54.0288 95 58.6328 95C60.7698 95 62.7208 94.1921 64.1992 92.8671C65.6777 94.1923 67.6287 95 69.7656 95C74.3696 95 78.1152 91.2544 78.1152 86.6504V59.375H80.8984C85.5024 59.375 89.248 55.6294 89.248 51.0254V38.0371C89.248 28.7607 82.7307 20.9789 74.0349 19.0271ZM64.1992 5.56641C67.7801 5.56641 70.6934 8.47968 70.6934 12.0605C70.6934 15.6414 67.7801 18.5547 64.1992 18.5547C60.6184 18.5547 57.7051 15.6414 57.7051 12.0605C57.7051 8.47968 60.6184 5.56641 64.1992 5.56641ZM30.8008 5.56641C34.3817 5.56641 37.2949 8.47968 37.2949 12.0605C37.2949 15.6414 34.3817 18.5547 30.8008 18.5547C27.2199 18.5547 24.3066 15.6414 24.3066 12.0605C24.3066 8.47968 27.2199 5.56641 30.8008 5.56641ZM16.8848 53.8086H14.1016C12.5669 53.8086 11.3184 52.56 11.3184 51.0254V48.2422H16.8848V53.8086ZM50.2832 51.0254C50.2832 52.56 49.0347 53.8086 47.5 53.8086H44.7168V38.0371C44.7168 36.5 43.4707 35.2539 41.9336 35.2539C40.3965 35.2539 39.1504 36.5 39.1504 38.0371V86.6504C39.1504 88.1851 37.9018 89.4336 36.3672 89.4336C34.8325 89.4336 33.584 88.1851 33.584 86.6504V58.4473C33.584 56.9102 32.3379 55.6641 30.8008 55.6641C29.2637 55.6641 28.0176 56.9102 28.0176 58.4473V65.8691C28.0176 67.4038 26.769 68.6523 25.2344 68.6523C23.6997 68.6523 22.4512 67.4038 22.4512 65.8691V38.0371C22.4512 36.5 21.205 35.2539 19.668 35.2539C18.1309 35.2539 16.8848 36.5 16.8848 38.0371V42.6758H11.3184V38.0371C11.3184 30.3638 17.5611 24.1211 25.2344 24.1211H36.3672C44.0405 24.1211 50.2832 30.3638 50.2832 38.0371V51.0254ZM83.6816 51.0254C83.6816 52.56 82.4331 53.8086 80.8984 53.8086H78.1152V38.0371C78.1152 36.5 76.8691 35.2539 75.332 35.2539C73.795 35.2539 72.5488 36.5 72.5488 38.0371V86.6504C72.5488 88.1851 71.3003 89.4336 69.7656 89.4336C68.231 89.4336 66.9824 88.1851 66.9824 86.6504V58.4473C66.9824 56.9102 65.7363 55.6641 64.1992 55.6641C62.6621 55.6641 61.416 56.9102 61.416 58.4473V86.6504C61.416 88.1851 60.1675 89.4336 58.6328 89.4336C57.0982 89.4336 55.8496 88.1851 55.8496 86.6504V38.0371C55.8496 32.5906 53.6021 27.66 49.9871 24.1211H69.7656C77.4389 24.1211 83.6816 30.3638 83.6816 38.0371V51.0254Z" fill="#062E70"/>
</svg>
