<svg width="120" height="120" viewBox="0 0 120 120" fill="none" xmlns="http://www.w3.org/2000/svg">
<path d="M93.5177 24.0342C95.2847 21.5468 96.3281 18.5112 96.3281 15.2344C96.3281 6.83414 89.494 0 81.0938 0C72.6935 0 65.8594 6.83414 65.8594 15.2344C65.8594 18.2534 66.7458 21.0675 68.2666 23.4375H51.7334C53.2542 21.0675 54.1406 18.2534 54.1406 15.2344C54.1406 6.83414 47.3065 0 38.9062 0C30.506 0 23.6719 6.83414 23.6719 15.2344C23.6719 18.5112 24.7153 21.5468 26.4823 24.0342C15.498 26.4996 7.26562 36.3293 7.26562 48.0469V116.484C7.26562 118.426 8.83969 120 10.7812 120C12.7228 120 14.2969 118.426 14.2969 116.484V74.3953C15.3973 74.7856 16.5802 75 17.8125 75H21.3281V83.2031C21.3281 89.0187 26.0595 93.75 31.875 93.75C33.1073 93.75 34.2902 93.5356 35.3906 93.1453V109.453C35.3906 115.269 40.122 120 45.9375 120C51.753 120 56.4844 115.269 56.4844 109.453V75H60C61.2323 75 62.4152 74.7856 63.5156 74.3953V109.453C63.5156 115.269 68.247 120 74.0625 120C76.7618 120 79.2263 118.98 81.0938 117.306C82.9612 118.98 85.4257 120 88.125 120C93.9405 120 98.6719 115.269 98.6719 109.453V75H102.188C108.003 75 112.734 70.2687 112.734 64.4531V48.0469C112.734 36.3293 104.502 26.4996 93.5177 24.0342ZM81.0938 7.03125C85.617 7.03125 89.2969 10.7112 89.2969 15.2344C89.2969 19.7576 85.617 23.4375 81.0938 23.4375C76.5705 23.4375 72.8906 19.7576 72.8906 15.2344C72.8906 10.7112 76.5705 7.03125 81.0938 7.03125ZM38.9062 7.03125C43.4295 7.03125 47.1094 10.7112 47.1094 15.2344C47.1094 19.7576 43.4295 23.4375 38.9062 23.4375C34.383 23.4375 30.7031 19.7576 30.7031 15.2344C30.7031 10.7112 34.383 7.03125 38.9062 7.03125ZM21.3281 67.9688H17.8125C15.874 67.9688 14.2969 66.3916 14.2969 64.4531V60.9375H21.3281V67.9688ZM63.5156 64.4531C63.5156 66.3916 61.9385 67.9688 60 67.9688H56.4844V48.0469C56.4844 46.1053 54.9103 44.5312 52.9688 44.5312C51.0272 44.5312 49.4531 46.1053 49.4531 48.0469V109.453C49.4531 111.392 47.876 112.969 45.9375 112.969C43.999 112.969 42.4219 111.392 42.4219 109.453V73.8281C42.4219 71.8866 40.8478 70.3125 38.9062 70.3125C36.9647 70.3125 35.3906 71.8866 35.3906 73.8281V83.2031C35.3906 85.1416 33.8135 86.7188 31.875 86.7188C29.9365 86.7188 28.3594 85.1416 28.3594 83.2031V48.0469C28.3594 46.1053 26.7853 44.5312 24.8438 44.5312C22.9022 44.5312 21.3281 46.1053 21.3281 48.0469V53.9062H14.2969V48.0469C14.2969 38.3543 22.1824 30.4688 31.875 30.4688H45.9375C55.6301 30.4688 63.5156 38.3543 63.5156 48.0469V64.4531ZM105.703 64.4531C105.703 66.3916 104.126 67.9688 102.188 67.9688H98.6719V48.0469C98.6719 46.1053 97.0978 44.5312 95.1562 44.5312C93.2147 44.5312 91.6406 46.1053 91.6406 48.0469V109.453C91.6406 111.392 90.0635 112.969 88.125 112.969C86.1865 112.969 84.6094 111.392 84.6094 109.453V73.8281C84.6094 71.8866 83.0353 70.3125 81.0938 70.3125C79.1522 70.3125 77.5781 71.8866 77.5781 73.8281V109.453C77.5781 111.392 76.001 112.969 74.0625 112.969C72.124 112.969 70.5469 111.392 70.5469 109.453V48.0469C70.5469 41.167 67.7079 34.939 63.1416 30.4688H88.125C97.8176 30.4688 105.703 38.3543 105.703 48.0469V64.4531Z" fill="#062E70"/>
</svg>
