<svg width="100" height="100" viewBox="0 0 100 100" fill="none" xmlns="http://www.w3.org/2000/svg">
<circle cx="50" cy="50" r="50" fill="#0050D5"/>
<g clip-path="url(#clip0)">
<path d="M80 33.3963C77.7687 34.375 75.3913 35.0237 72.9125 35.3387C75.4625 33.8162 77.4088 31.4237 78.3238 28.54C75.9463 29.9575 73.3212 30.9588 70.5238 31.5175C68.2662 29.1138 65.0487 27.625 61.5387 27.625C54.7287 27.625 49.2463 33.1525 49.2463 39.9288C49.2463 40.9038 49.3288 41.8412 49.5312 42.7337C39.305 42.235 30.2563 37.3338 24.1775 29.8675C23.1162 31.7088 22.4938 33.8162 22.4938 36.085C22.4938 40.345 24.6875 44.1213 27.9575 46.3075C25.9812 46.27 24.0425 45.6963 22.4 44.7925C22.4 44.83 22.4 44.8787 22.4 44.9275C22.4 50.905 26.6637 55.87 32.255 57.0138C31.2537 57.2875 30.1625 57.4187 29.03 57.4187C28.2425 57.4187 27.4475 57.3738 26.7012 57.2087C28.295 62.08 32.8175 65.6613 38.195 65.7775C34.01 69.0513 28.6962 71.0238 22.9438 71.0238C21.935 71.0238 20.9675 70.9787 20 70.855C25.4488 74.3687 31.9062 76.375 38.87 76.375C61.505 76.375 73.88 57.625 73.88 41.3725C73.88 40.8287 73.8612 40.3038 73.835 39.7825C76.2762 38.05 78.3275 35.8863 80 33.3963Z" fill="#F1F6F9"/>
</g>
<defs>
<clipPath id="clip0">
<rect width="60" height="60" fill="white" transform="translate(20 22)"/>
</clipPath>
</defs>
</svg>
